_________________________  Visit us at _________________________
  
http://p2pdl.com  ____________________________  http://p2pdl.com


Escape From Planet Earth 2013 BRRip 480p x264 - VYTO


Genre: Animation | Adventure | Comedy
Plot: Astronaut Scorch Supernova finds himself caught in a trap when he responds to an SOS from a
notoriously dangerous alien planet.   
Director: Cal Brunker
Stars: Brendan Fraser, Rob Corddry, Jessica Alba.
Rated: PG for action and some mild rude humor.


Info: 
http://www.imdb.com/title/tt0765446/

Trailer:


Format                         : MPEG-4
File size                      : 282 MiB
Duration                       : 1h 29mn
Overall bit rate               : 442 Kbps
Source                         : 720p.BluRay.DTS-5.1.x264-AXED

Video
Format                         : AVC
Duration                       : 1h 29mn
Bit rate                       : 399 Kbps
Width                          : 720 pixels
Height                         : 304 pixels
Display aspect ratio           : 2.35:1
Frame rate mode                : Constant
Frame rate                     : 23.976 fps
Stream size                    : 254 MiB (90%)
Writing library                : x264 core 130 r2273

Audio
Format                         : AAC
Bit rate mode                  : Variable
Bit rate                       : 40.0 Kbps
Channel(s)                     : 2 channels
Channel positions              : Front: L R
Sampling rate                  : 44.1 KHz
Stream size                    : 25.5 MiB (9%)
Language                       : English

Subtitle                       : Yes(English)
 
http://www.ultraimg.com/images/0D2Y.png 
http://www.ultraimg.com/images/P7k0j.png 
http://www.ultraimg.com/images/Egf5B.png 
http://www.ultraimg.com/images/1wkTt.png 
http://www.ultraimg.com/images/U1zS.png 
http://www.ultraimg.com/images/NLRl.png


----------------------------------------------------------------------------------------------------


Encoded using revolutionary 10bit encoding, which enables us to provide you more crispier 
and sharper images at small sizes, just make sure you follow our instructions without a fault.
Recommend to you to use latest version of VLC player. Install K-Lite Codec Pack or shark007 codecs
in case of any kind of problem in playback (For non-VLC Media Player users). Alternatively, install
Core AVC codecs, the fastest decoder that there is coupled with Community Center Codec Pack and play
on Windows Media Player Classic. Check sample to be sure.
Enjoy!

Encoder Notes:Looking For Early Access To Anything You Can Provide DVDScr, R5, DVDR, BluRay, Direct
Audio, Music Releases and Seedboxes. We require dedicated servers, so as to do more 
and fast releases of movies.
If You Got anything to offer please contact us at "contact@p2pdl.com".

Face book Fan Page:   
http://www.fb.me/p2pdl